<svg xmlns="http://www.w3.org/2000/svg" viewBox="0 0 800 600" width="800" height="600" role="img" aria-label="Bedroom">
  <rect width="800" height="600" fill="#EEF0F4"/>
  <rect y="450" width="800" height="150" fill="#D5C7B0"/>
  <rect x="190" y="200" width="420" height="160" rx="24" fill="#8C9A86"/>
  <rect x="160" y="330" width="480" height="140" rx="20" fill="#FFFFFF"/>
  <rect x="160" y="380" width="480" height="90" rx="20" fill="#C9D6C4"/>
  <rect x="215" y="290" width="150" height="60" rx="22" fill="#F5F1E8"/>
  <rect x="435" y="290" width="150" height="60" rx="22" fill="#F5F1E8"/>
  <rect x="170" y="470" width="16" height="28" rx="4" fill="#6B5A45"/>
  <rect x="614" y="470" width="16" height="28" rx="4" fill="#6B5A45"/>
  <rect x="660" y="360" width="100" height="100" rx="10" fill="#B98B5E"/>
  <rect x="672" y="400" width="76" height="6" rx="3" fill="#8F6A45"/>
  <rect x="700" y="300" width="20" height="60" fill="#8F6A45"/>
  <path d="M672 300 L748 300 L732 250 L688 250 Z" fill="#F2D9A6"/>
  <rect x="300" y="80" width="200" height="90" rx="6" fill="#FFFFFF"/>
  <rect x="312" y="92" width="176" height="66" fill="#DCE6D8"/>
  <path d="M312 158 L372 110 L420 145 L450 125 L488 158 Z" fill="#9FB39A"/>
</svg>
